<?xml version="1.0" encoding="UTF-8" standalone="no"?>
<!DOCTYPE svg PUBLIC "-//W3C//DTD SVG 20010904//EN"
              "http://www.w3.org/TR/2001/REC-SVG-20010904/DTD/svg10.dtd">

<svg xmlns="http://www.w3.org/2000/svg"
    
     viewBox="0 0 1917 900">
  <path id="Markering"
        fill="#E5DBD1"
        d="M 1916.00,0.00
           C 1916.00,0.00 1917.00,0.00 1917.00,0.00
             1917.00,0.00 1916.00,1.00 1916.00,1.00
             1916.00,1.00 1916.00,0.00 1916.00,0.00 Z
           M 0.00,89.00
           C 0.00,89.00 18.00,90.04 18.00,90.04
             18.00,90.04 31.00,90.04 31.00,90.04
             31.00,90.04 43.00,91.00 43.00,91.00
             43.00,91.00 76.00,92.00 76.00,92.00
             76.00,92.00 90.00,93.00 90.00,93.00
             90.00,93.00 122.00,94.00 122.00,94.00
             122.00,94.00 137.00,95.04 137.00,95.04
             137.00,95.04 150.00,95.04 150.00,95.04
             150.00,95.04 162.00,96.04 162.00,96.04
             162.00,96.04 174.00,96.04 174.00,96.04
             174.00,96.04 186.00,97.00 186.00,97.00
             186.00,97.00 219.00,98.00 219.00,98.00
             219.00,98.00 233.00,99.00 233.00,99.00
             233.00,99.00 265.00,100.00 265.00,100.00
             265.00,100.00 281.00,101.04 281.00,101.04
             281.00,101.04 293.00,101.04 293.00,101.04
             293.00,101.04 305.00,102.04 305.00,102.04
             305.00,102.04 317.00,102.04 317.00,102.04
             317.00,102.04 329.00,103.00 329.00,103.00
             329.00,103.00 362.00,104.00 362.00,104.00
             362.00,104.00 377.00,105.00 377.00,105.00
             377.00,105.00 399.00,106.00 399.00,106.00
             399.00,106.00 431.00,107.00 431.00,107.00
             431.00,107.00 448.00,108.04 448.00,108.04
             448.00,108.04 460.00,108.04 460.00,108.04
             460.00,108.04 472.00,109.04 472.00,109.04
             472.00,109.04 484.00,109.04 484.00,109.04
             484.00,109.04 496.00,110.00 496.00,110.00
             496.00,110.00 516.00,111.00 516.00,111.00
             516.00,111.00 528.00,111.00 528.00,111.00
             528.00,111.00 542.00,112.00 542.00,112.00
             542.00,112.00 576.00,113.00 576.00,113.00
             576.00,113.00 590.00,114.00 590.00,114.00
             590.00,114.00 622.00,115.00 622.00,115.00
             622.00,115.00 637.00,116.04 637.00,116.04
             637.00,116.04 650.00,116.04 650.00,116.04
             650.00,116.04 662.00,117.00 662.00,117.00
             662.00,117.00 695.00,118.00 695.00,118.00
             695.00,118.00 709.00,119.00 709.00,119.00
             709.00,119.00 743.00,120.00 743.00,120.00
             743.00,120.00 753.00,120.96 753.00,120.96
             753.00,120.96 765.00,120.96 765.00,120.96
             765.00,120.96 780.00,122.04 780.00,122.04
             780.00,122.04 793.00,122.04 793.00,122.04
             793.00,122.04 805.00,123.00 805.00,123.00
             805.00,123.00 838.00,124.00 838.00,124.00
             838.00,124.00 848.00,124.96 848.00,124.96
             848.00,124.96 860.00,124.96 860.00,124.96
             860.00,124.96 874.00,126.00 874.00,126.00
             874.00,126.00 904.00,127.91 904.00,127.91
             904.00,127.91 959.00,132.83 959.00,132.83
             1017.58,138.69 1083.67,150.29 1141.00,163.88
             1223.91,183.55 1303.42,209.45 1382.00,242.42
             1434.70,264.54 1485.37,290.83 1537.00,315.22
             1537.00,315.22 1648.00,368.74 1648.00,368.74
             1648.00,368.74 1814.00,448.74 1814.00,448.74
             1814.00,448.74 1889.00,484.75 1889.00,484.75
             1889.00,484.75 1917.00,498.82 1917.00,498.82
             1917.00,506.12 1917.00,894.22 1917.00,900.00
             1917.00,900.00 0.00,900.00 0.00,900.00
             0.00,900.00 0.00,89.00 0.00,89.00 Z" />
  <path id="Importerad bana"
        fill="#1D1D1D"
        d="M 1920.00,500.00
           C 1920.00,500.00 1450.36,273.61 1450.36,273.61
             1265.07,184.29 1063.49,133.77 857.98,125.14
             857.98,125.14 0.00,89.13 0.00,89.13
             0.00,89.13 0.00,0.00 0.00,0.00
             0.00,0.00 1916.50,0.00 1916.50,0.00
             1916.50,0.00 1920.00,500.00 1920.00,500.00 Z" />
</svg>
