<?xml version="1.0" encoding="UTF-8" standalone="no"?>
<!DOCTYPE svg PUBLIC "-//W3C//DTD SVG 20010904//EN"
              "http://www.w3.org/TR/2001/REC-SVG-20010904/DTD/svg10.dtd">

<svg xmlns="http://www.w3.org/2000/svg"
    
     viewBox="0 0 1917 499">
  <path id="Markering #1"
        fill="#1D1D1D"
        d="M 0.00,0.00
           C 0.00,0.00 46.00,22.74 46.00,22.74
             46.00,22.74 125.00,60.74 125.00,60.74
             125.00,60.74 355.00,171.26 355.00,171.26
             355.00,171.26 440.00,212.26 440.00,212.26
             440.00,212.26 517.00,248.58 517.00,248.58
             583.56,277.44 650.10,301.14 720.00,320.58
             790.75,340.25 863.14,354.64 936.00,363.72
             936.00,363.72 994.00,369.17 994.00,369.17
             994.00,369.17 1024.00,372.00 1024.00,372.00
             1024.00,372.00 1033.00,372.00 1033.00,372.00
             1033.00,372.00 1059.00,374.00 1059.00,374.00
             1059.00,374.00 1089.00,375.00 1089.00,375.00
             1089.00,375.00 1110.00,376.00 1110.00,376.00
             1110.00,376.00 1122.00,376.96 1122.00,376.96
             1122.00,376.96 1138.00,376.96 1138.00,376.96
             1138.00,376.96 1154.00,378.00 1154.00,378.00
             1154.00,378.00 1187.00,379.00 1187.00,379.00
             1187.00,379.00 1200.00,380.00 1200.00,380.00
             1200.00,380.00 1232.00,381.00 1232.00,381.00
             1232.00,381.00 1249.00,382.00 1249.00,382.00
             1249.00,382.00 1268.00,383.00 1268.00,383.00
             1268.00,383.00 1282.00,383.00 1282.00,383.00
             1282.00,383.00 1297.00,384.00 1297.00,384.00
             1297.00,384.00 1329.00,385.00 1329.00,385.00
             1329.00,385.00 1344.00,386.04 1344.00,386.04
             1344.00,386.04 1357.00,386.04 1357.00,386.04
             1357.00,386.04 1369.00,387.04 1369.00,387.04
             1369.00,387.04 1380.00,387.04 1380.00,387.04
             1380.00,387.04 1390.00,388.00 1390.00,388.00
             1390.00,388.00 1405.00,388.00 1405.00,388.00
             1405.00,388.00 1436.00,390.04 1436.00,390.04
             1436.00,390.04 1449.00,390.04 1449.00,390.04
             1449.00,390.04 1461.00,391.00 1461.00,391.00
             1461.00,391.00 1523.00,393.00 1523.00,393.00
             1523.00,393.00 1533.00,394.00 1533.00,394.00
             1533.00,394.00 1545.00,394.00 1545.00,394.00
             1545.00,394.00 1557.00,395.00 1557.00,395.00
             1557.00,395.00 1611.00,397.00 1611.00,397.00
             1611.00,397.00 1628.00,398.00 1628.00,398.00
             1628.00,398.00 1686.00,400.00 1686.00,400.00
             1686.00,400.00 1701.00,401.04 1701.00,401.04
             1701.00,401.04 1713.00,401.04 1713.00,401.04
             1713.00,401.04 1725.00,402.00 1725.00,402.00
             1725.00,402.00 1744.00,403.00 1744.00,403.00
             1744.00,403.00 1756.00,403.00 1756.00,403.00
             1756.00,403.00 1771.00,404.04 1771.00,404.04
             1771.00,404.04 1785.00,404.04 1785.00,404.04
             1785.00,404.04 1797.00,405.00 1797.00,405.00
             1797.00,405.00 1853.00,407.00 1853.00,407.00
             1853.00,407.00 1867.00,408.00 1867.00,408.00
             1867.00,408.00 1900.00,409.00 1900.00,409.00
             1900.00,409.00 1917.00,410.00 1917.00,410.00
             1917.00,410.00 1917.00,499.00 1917.00,499.00
             1917.00,499.00 0.00,499.00 0.00,499.00
             0.00,499.00 0.00,0.00 0.00,0.00 Z" />
  <path id="Markering"
        fill="#0000"
        d="M 1.00,499.00
           C 1.00,499.00 0.00,499.00 0.00,499.00
             0.00,499.00 1.00,498.00 1.00,498.00
             1.00,498.00 1.00,499.00 1.00,499.00 Z
           M 1917.00,410.00
           C 1917.00,410.00 1899.00,408.96 1899.00,408.96
             1899.00,408.96 1886.00,408.96 1886.00,408.96
             1886.00,408.96 1874.00,408.00 1874.00,408.00
             1874.00,408.00 1841.00,407.00 1841.00,407.00
             1841.00,407.00 1827.00,406.00 1827.00,406.00
             1827.00,406.00 1795.00,405.00 1795.00,405.00
             1795.00,405.00 1780.00,403.96 1780.00,403.96
             1780.00,403.96 1767.00,403.96 1767.00,403.96
             1767.00,403.96 1755.00,402.96 1755.00,402.96
             1755.00,402.96 1743.00,402.96 1743.00,402.96
             1743.00,402.96 1731.00,402.00 1731.00,402.00
             1731.00,402.00 1698.00,401.00 1698.00,401.00
             1698.00,401.00 1684.00,400.00 1684.00,400.00
             1684.00,400.00 1652.00,399.00 1652.00,399.00
             1652.00,399.00 1636.00,397.96 1636.00,397.96
             1636.00,397.96 1624.00,397.96 1624.00,397.96
             1624.00,397.96 1612.00,396.96 1612.00,396.96
             1612.00,396.96 1600.00,396.96 1600.00,396.96
             1600.00,396.96 1588.00,396.00 1588.00,396.00
             1588.00,396.00 1555.00,395.00 1555.00,395.00
             1555.00,395.00 1540.00,394.00 1540.00,394.00
             1540.00,394.00 1518.00,393.00 1518.00,393.00
             1518.00,393.00 1486.00,392.00 1486.00,392.00
             1486.00,392.00 1469.00,390.96 1469.00,390.96
             1469.00,390.96 1457.00,390.96 1457.00,390.96
             1457.00,390.96 1445.00,389.96 1445.00,389.96
             1445.00,389.96 1433.00,389.96 1433.00,389.96
             1433.00,389.96 1421.00,389.00 1421.00,389.00
             1421.00,389.00 1401.00,388.00 1401.00,388.00
             1401.00,388.00 1389.00,388.00 1389.00,388.00
             1389.00,388.00 1375.00,387.00 1375.00,387.00
             1375.00,387.00 1341.00,386.00 1341.00,386.00
             1341.00,386.00 1327.00,385.00 1327.00,385.00
             1327.00,385.00 1295.00,384.00 1295.00,384.00
             1295.00,384.00 1280.00,382.96 1280.00,382.96
             1280.00,382.96 1267.00,382.96 1267.00,382.96
             1267.00,382.96 1255.00,382.00 1255.00,382.00
             1255.00,382.00 1222.00,381.00 1222.00,381.00
             1222.00,381.00 1208.00,380.00 1208.00,380.00
             1208.00,380.00 1174.00,379.00 1174.00,379.00
             1174.00,379.00 1164.00,378.04 1164.00,378.04
             1164.00,378.04 1152.00,378.04 1152.00,378.04
             1152.00,378.04 1137.00,376.96 1137.00,376.96
             1137.00,376.96 1124.00,376.96 1124.00,376.96
             1124.00,376.96 1112.00,376.00 1112.00,376.00
             1112.00,376.00 1079.00,375.00 1079.00,375.00
             1079.00,375.00 1069.00,374.04 1069.00,374.04
             1069.00,374.04 1057.00,374.04 1057.00,374.04
             1057.00,374.04 1043.00,373.00 1043.00,373.00
             1043.00,373.00 1013.00,371.09 1013.00,371.09
             1013.00,371.09 958.00,366.17 958.00,366.17
             899.42,360.31 833.33,348.71 776.00,335.12
             693.09,315.45 613.58,289.55 535.00,256.58
             482.30,234.46 431.63,208.17 380.00,183.78
             380.00,183.78 269.00,130.26 269.00,130.26
             269.00,130.26 103.00,50.26 103.00,50.26
             103.00,50.26 28.00,14.25 28.00,14.25
             28.00,14.25 0.00,0.18 0.00,0.18
             0.00,-7.12 0.00,5.78 0.00,0.00
             0.00,0.00 1917.00,0.00 1917.00,0.00
             1917.00,0.00 1917.00,410.00 1917.00,410.00 Z" />
</svg>
