<?xml version="1.0" encoding="UTF-8" standalone="no"?>
<!DOCTYPE svg PUBLIC "-//W3C//DTD SVG 20010904//EN"
              "http://www.w3.org/TR/2001/REC-SVG-20010904/DTD/svg10.dtd">

<svg xmlns="http://www.w3.org/2000/svg"
     preserveAspectRatio="none"
     viewBox="0 0 1920 1803">
  <path id="Namnlös"
        fill="#1D1D1D" stroke="black" stroke-width="1"
        d="M 1920.13,411.57
           C 1920.13,411.57 1672.26,292.22 1672.26,292.22
             1672.26,292.22 1435.08,177.92 1435.08,177.92
             1435.08,177.92 1402.43,163.28 1402.43,163.28
             1402.43,163.28 1373.62,150.55 1373.62,150.55
             1373.62,150.55 1348.42,140.47 1348.42,140.47
             1348.42,140.47 1328.01,132.54 1328.01,132.54
             1328.01,132.54 1303.29,123.42 1303.29,123.42
             1303.29,123.42 1280.24,115.01 1280.24,115.01
             1280.24,115.01 1259.35,108.53 1259.35,108.53
             1259.35,108.53 1219.50,96.28 1219.50,96.28
             1219.50,96.28 1173.89,83.32 1173.89,83.32
             1173.89,83.32 1130.44,72.75 1130.44,72.75
             1130.44,72.75 1101.16,66.27 1101.16,66.27
             1101.16,66.27 1058.42,58.11 1058.42,58.11
             1058.42,58.11 1017.13,51.62 1017.13,51.62
             1017.13,51.62 974.88,45.62 974.88,45.62
             974.88,45.62 939.83,41.78 939.83,41.78
             939.83,41.78 892.06,37.94 892.06,37.94
             892.06,37.94 803.48,33.62 803.48,33.62
             803.48,33.62 709.62,30.25 709.62,30.25
             709.62,30.25 605.43,26.17 605.43,26.17
             605.43,26.17 489.48,21.13 489.48,21.13
             489.48,21.13 362.01,15.37 362.01,15.37
             362.01,15.37 273.19,11.77 273.19,11.77
             273.19,11.77 154.84,6.72 154.84,6.72
             154.84,6.72 39.13,2.16 39.13,2.16
             39.13,2.16 0.48,0.48 0.48,0.48
             0.48,0.48 -0.72,1803.00 -0.72,1803.00
             -0.72,1803.00 1920.00,1803.00 1920.00,1803.00
             1920.00,1803.00 1920.00,411.51 1920.00,411.51" />
</svg>
