<?xml version="1.0" encoding="UTF-8" standalone="no"?>
<!DOCTYPE svg PUBLIC "-//W3C//DTD SVG 20010904//EN"
              "http://www.w3.org/TR/2001/REC-SVG-20010904/DTD/svg10.dtd">

<svg xmlns="http://www.w3.org/2000/svg"
     preserveAspectRatio="none"
     viewBox="0 0 1920 1803">
  <path id="Namnlös"
        fill="#1D1D1D" stroke="#0000" stroke-width="1"
        d="M -0.13,1391.43
           C -0.13,1391.43 247.74,1510.78 247.74,1510.78
             247.74,1510.78 484.92,1625.08 484.92,1625.08
             484.92,1625.08 517.57,1639.72 517.57,1639.72
             517.57,1639.72 546.38,1652.45 546.38,1652.45
             546.38,1652.45 571.58,1662.53 571.58,1662.53
             571.58,1662.53 591.99,1670.46 591.99,1670.46
             591.99,1670.46 616.71,1679.58 616.71,1679.58
             616.71,1679.58 639.76,1687.99 639.76,1687.99
             639.76,1687.99 660.65,1694.47 660.65,1694.47
             660.65,1694.47 700.50,1706.72 700.50,1706.72
             700.50,1706.72 746.11,1719.68 746.11,1719.68
             746.11,1719.68 789.56,1730.25 789.56,1730.25
             789.56,1730.25 818.84,1736.73 818.84,1736.73
             818.84,1736.73 861.58,1744.89 861.58,1744.89
             861.58,1744.89 902.87,1751.38 902.87,1751.38
             902.87,1751.38 945.12,1757.38 945.12,1757.38
             945.12,1757.38 980.17,1761.22 980.17,1761.22
             980.17,1761.22 1027.94,1765.06 1027.94,1765.06
             1027.94,1765.06 1116.52,1769.38 1116.52,1769.38
             1116.52,1769.38 1210.38,1772.75 1210.38,1772.75
             1210.38,1772.75 1314.57,1776.83 1314.57,1776.83
             1314.57,1776.83 1430.52,1781.87 1430.52,1781.87
             1430.52,1781.87 1557.99,1787.63 1557.99,1787.63
             1557.99,1787.63 1646.81,1791.23 1646.81,1791.23
             1646.81,1791.23 1765.16,1796.28 1765.16,1796.28
             1765.16,1796.28 1880.87,1800.84 1880.87,1800.84
             1880.87,1800.84 1919.52,1802.52 1919.52,1802.52
             1919.52,1802.52 1920.72,0.00 1920.72,0.00
             1920.72,0.00 0.00,0.00 0.00,0.00
             0.00,0.00 0.00,1391.49 0.00,1391.49" />
</svg>
