<svg xmlns="http://www.w3.org/2000/svg" viewBox="0 0 704.4 198.25">
    <defs>
        <style>.cls-1{fill:#fff;}</style>
    </defs>
    <g id="Lager_2" data-name="Lager 2">
        <g id="Final_results" data-name="Final results">
            <g id="white_name">
                <rect class="cls-1" x="666" y="115.54" width="38.41" height="38.41" rx="19.2"/>
                <path class="cls-1"
                      d="M83.39,39.52a23.1,23.1,0,0,0-10.66-7.35A38.36,38.36,0,0,0,60,29.79a33.39,33.39,0,0,0-7.24.83,27.63,27.63,0,0,0-7,2.59,15.29,15.29,0,0,0-5.38,4.65,11.79,11.79,0,0,0-2.07,7,11.68,11.68,0,0,0,5,10.14,47.25,47.25,0,0,0,12.52,6Q63.32,63.52,72,66a67.44,67.44,0,0,1,16.24,7,38.4,38.4,0,0,1,12.52,12.21q5,7.65,5,20.48,0,12.21-4.56,21.31a43.12,43.12,0,0,1-12.31,15.11,52.31,52.31,0,0,1-18,8.89,78.78,78.78,0,0,1-21.62,2.9,78.64,78.64,0,0,1-26.49-4.34A66.5,66.5,0,0,1,0,135.53l23-25.25a33.3,33.3,0,0,0,12.52,10.24,35.64,35.64,0,0,0,15.62,3.63,34.79,34.79,0,0,0,8-.94,25.92,25.92,0,0,0,7.25-2.79,15.58,15.58,0,0,0,5.17-4.76,11.85,11.85,0,0,0,2-6.83,12.42,12.42,0,0,0-5.06-10.45,46.92,46.92,0,0,0-12.73-6.51Q48,89.19,39.11,86.49a74,74,0,0,1-16.56-7.25,39.82,39.82,0,0,1-12.72-12Q4.76,59.8,4.76,47.59A43.93,43.93,0,0,1,9.42,26.9,44.88,44.88,0,0,1,21.83,12a54,54,0,0,1,17.9-9,73.3,73.3,0,0,1,20.9-3,82.05,82.05,0,0,1,24,3.52,55.45,55.45,0,0,1,20.9,11.79Z"/>
                <path class="cls-1"
                      d="M128.65,53.87h28.58V66.24h.41a34.39,34.39,0,0,1,4.87-5.36,36.66,36.66,0,0,1,7-5,44.5,44.5,0,0,1,8.81-3.64,35.15,35.15,0,0,1,10.14-1.42,53.08,53.08,0,0,1,20.3,3.74,45.39,45.39,0,0,1,15.63,10.51,46.87,46.87,0,0,1,10,16.07A57.51,57.51,0,0,1,238,101.62a60.6,60.6,0,0,1-3.21,19.71A54,54,0,0,1,225.68,138a44.32,44.32,0,0,1-14.4,11.63A41.63,41.63,0,0,1,192,154,54.39,54.39,0,0,1,173.9,151a28.9,28.9,0,0,1-13.77-10h-.41v57.21H128.67Zm28.6,48.94q0,11.2,6.52,18.13t18.32,6.92q11.79,0,18.3-6.92t6.52-18.13q0-11.2-6.52-18.13t-18.3-6.92q-11.81,0-18.32,6.92T157.25,102.81Z"/>
                <path class="cls-1"
                      d="M256.16,53.9h31V69.52h.41q5-9.31,11.79-14t17.18-4.65c1.79,0,3.58.07,5.38.21a26.32,26.32,0,0,1,5,.83V80.28a46.21,46.21,0,0,0-6.52-1.55,41.61,41.61,0,0,0-6.72-.52q-8.9,0-14.07,2.49a18.6,18.6,0,0,0-8,6.93A26.28,26.28,0,0,0,288,98.28a104.17,104.17,0,0,0-.82,13.66v42h-31Z"/>
                <path class="cls-1"
                      d="M334.23,102.42a51.49,51.49,0,0,1,4.25-21.22A48.84,48.84,0,0,1,350.1,64.94a51.15,51.15,0,0,1,17.37-10.4,64.23,64.23,0,0,1,42.63,0,51.29,51.29,0,0,1,17.38,10.4A49,49,0,0,1,439.09,81.2a51.33,51.33,0,0,1,4.25,21.22,51.18,51.18,0,0,1-4.25,21.21,48.69,48.69,0,0,1-11.61,16.27,51.29,51.29,0,0,1-17.38,10.4,64.23,64.23,0,0,1-42.63,0,51.15,51.15,0,0,1-17.37-10.4,48.58,48.58,0,0,1-11.62-16.27A51.34,51.34,0,0,1,334.23,102.42Zm30.31,0q0,11.11,6.37,18t17.88,6.87q11.52,0,17.88-6.87t6.36-18q0-11.11-6.36-18t-17.88-6.87q-11.52,0-17.88,6.87T364.54,102.42Z"/>
                <path class="cls-1"
                      d="M559.69,150.94H529.9V137.8h-.41a34.57,34.57,0,0,1-4.24,5.8,28,28,0,0,1-6.32,5.17,36.29,36.29,0,0,1-8.48,3.72,35.23,35.23,0,0,1-10.35,1.45q-11.79,0-19.13-3.62a27.37,27.37,0,0,1-11.38-10,39.24,39.24,0,0,1-5.38-15.11,122.87,122.87,0,0,1-1.35-18.83V50.9h31v49.25q0,4.34.31,9a28,28,0,0,0,1.86,8.58,14.82,14.82,0,0,0,4.76,6.42c2.14,1.65,5.2,2.48,9.21,2.48a19.12,19.12,0,0,0,9.72-2.17,14.74,14.74,0,0,0,5.69-5.8,23.75,23.75,0,0,0,2.59-8.17,71,71,0,0,0,.62-9.52V50.9h31Z"/>
                <path class="cls-1"
                      d="M650.11,75.73H622.8v33.52a62,62,0,0,0,.42,7.55,15.07,15.07,0,0,0,1.86,5.9,9.38,9.38,0,0,0,4.45,3.83,19.65,19.65,0,0,0,8,1.34,52.68,52.68,0,0,0,6.52-.52,11,11,0,0,0,6.1-2.37v25.86a46.82,46.82,0,0,1-10.75,2.48,98,98,0,0,1-11,.62,59.88,59.88,0,0,1-14.49-1.65A33,33,0,0,1,602.32,147a24.63,24.63,0,0,1-7.76-9.42,32,32,0,0,1-2.79-14.06V75.73H571.9V50.9h19.87V21.11h31V50.9h27.31Z"/>
            </g>
        </g>
    </g>
</svg>